<?xml version="1.0" standalone="no"?>
<!DOCTYPE svg PUBLIC "-//W3C//DTD SVG 20010904//EN"
 "http://www.w3.org/TR/2001/REC-SVG-20010904/DTD/svg10.dtd">
<svg version="1.0" xmlns="http://www.w3.org/2000/svg"
 width="1000.000000pt" height="1000.000000pt" viewBox="0 0 1000.000000 1000.000000"
 preserveAspectRatio="xMidYMid meet">

<g transform="translate(0.000000,1000.000000) scale(0.100000,-0.100000)"
fill="#000000" stroke="none">
<path d="M4874 9980 c-48 -16 -536 -335 -2375 -1555 -1273 -845 -2333 -1551
-2355 -1570 -55 -45 -100 -115 -124 -193 -20 -63 -20 -99 -20 -1662 0 -1563 0
-1599 20 -1662 24 -78 69 -148 124 -193 22 -19 1082 -725 2355 -1570 2493
-1654 2368 -1575 2501 -1575 133 0 8 -79 2501 1575 1273 845 2333 1551 2355
1570 55 45 100 115 124 193 20 63 20 99 20 1662 0 1563 0 1599 -20 1662 -24
78 -69 148 -124 193 -22 19 -1082 725 -2355 1570 -1936 1284 -2325 1539 -2379
1555 -80 25 -168 25 -248 0z m-294 -2199 l0 -1020 -936 -629 -935 -629 -769
516 c-584 392 -765 519 -757 528 12 11 3388 2253 3394 2253 2 0 3 -459 3
-1019z m2545 -109 c924 -612 1685 -1119 1692 -1125 8 -9 -173 -136 -757 -528
l-769 -516 -935 629 -936 629 0 1020 c0 813 3 1019 13 1013 6 -4 768 -509
1692 -1122z m-1352 -2152 c421 -283 766 -517 766 -520 0 -3 -346 -238 -769
-522 l-770 -517 -770 517 c-423 284 -769 519 -769 522 0 7 1533 1039 1540
1037 3 -1 351 -234 772 -517z m-3902 -460 c41 -28 74 -55 74 -60 0 -11 -27
-30 -631 -436 l-484 -325 0 761 0 761 484 -325 c266 -179 517 -348 557 -376z
m7297 -439 l-3 -379 -555 374 c-305 205 -555 378 -555 384 0 6 250 179 555
384 l555 374 3 -379 c1 -209 1 -549 0 -758z m-5515 -759 l927 -623 0 -1020 c0
-813 -3 -1019 -12 -1013 -42 24 -3375 2238 -3385 2247 -8 9 172 136 755 528
422 283 772 513 777 510 6 -3 427 -286 938 -629z m5164 -409 c-10 -9 -3343
-2223 -3384 -2247 -10 -6 -13 200 -13 1013 l0 1020 936 629 935 629 769 -516
c584 -392 765 -519 757 -528z"/>
</g>
</svg>
