<?xml version="1.0" standalone="no"?>
<!DOCTYPE svg PUBLIC "-//W3C//DTD SVG 20010904//EN"
 "http://www.w3.org/TR/2001/REC-SVG-20010904/DTD/svg10.dtd">
<svg version="1.0" xmlns="http://www.w3.org/2000/svg"
 width="595.000000pt" height="841.000000pt" viewBox="0 0 595.000000 841.000000"
 preserveAspectRatio="xMidYMid meet">

<g transform="translate(0.000000,841.000000) scale(0.100000,-0.100000)"
fill="#000000" stroke="none">
<path d="M2774 6980 c-381 -30 -732 -130 -1070 -304 -268 -138 -491 -302 -704
-516 -501 -505 -783 -1160 -807 -1875 -26 -774 262 -1506 807 -2055 676 -680
1627 -964 2570 -765 745 158 1407 630 1804 1288 264 438 396 919 396 1442 0
292 -37 551 -115 809 -320 1053 -1234 1826 -2321 1960 -156 19 -420 27 -560
16z m65 -1068 c6 -11 4 -56 -4 -127 -8 -61 -48 -382 -90 -715 -41 -333 -109
-877 -151 -1210 -65 -527 -78 -608 -95 -625 -18 -19 -35 -20 -288 -23 -313 -4
-307 -6 -297 82 3 28 24 206 46 396 37 324 145 1229 226 1905 20 165 40 308
45 318 9 16 34 17 304 17 271 0 295 -1 304 -18z m1161 9 l105 -6 -1 -60 c-1
-33 -39 -346 -83 -695 -45 -349 -122 -952 -172 -1340 -49 -387 -98 -740 -109
-785 -11 -44 -41 -122 -66 -174 -82 -167 -220 -283 -394 -330 -81 -22 -278
-50 -375 -53 -81 -2 -376 22 -397 34 -14 6 -18 21 -18 56 1 81 27 273 39 285
7 7 78 14 188 19 198 9 281 25 333 67 48 39 67 74 85 161 13 62 163 1253 261
2065 30 253 82 657 90 703 11 58 28 62 229 61 99 -1 227 -4 285 -8z"/>
</g>
</svg>
